<svg xmlns="http://www.w3.org/2000/svg" viewBox="0 0 275.11 274.2"><g id="Layer_2" data-name="Layer 2"><g id="Layer_1-2" data-name="Layer 1"><path d="M.07,186.75c0-23.67.16-47.34-.07-71C-.12,102.85,4.85,93,15.32,85.52Q72,44.86,128.49,3.93c7.17-5.17,10.75-5.22,17.64-.25C183.71,30.78,221.22,58,258.92,84.93c11.14,8,16.25,18.26,16.19,31.88-.2,47.17-.07,94.35-.08,141.52,0,11.43-4.32,15.85-15.56,15.85q-41.76,0-83.53,0c-10,0-14.32-4.26-14.35-14.27-.05-18,.18-36-.14-54-.22-12.16-8.66-21.33-20.67-23.48-11.19-2-22.71,3.88-26.92,14.43a36.24,36.24,0,0,0-2.21,12.64c-.25,16.67-.09,33.34-.11,50,0,10.68-4.07,14.69-14.87,14.69q-41,0-82,0c-10.55,0-14.57-4-14.58-14.41Q.05,223.26.07,186.75Zm185,64.64h6.15c18,0,36-.2,54,.13,5.17.1,6.36-1.45,6.34-6.45q-.3-64.5,0-129c0-5.43-2-9-6.31-12.15Q192.94,66.19,140.81,28.19c-2.85-2.08-4.61-1.9-7.35.08Q81.41,65.94,29.14,103.33c-4.31,3.09-6.37,6.69-6.35,12.11.14,43,.08,86,.09,129,0,1.95.17,3.9.28,6.13h66.1v-5.74c0-12.84-.37-25.69.11-38.5.72-19.52,10-34.19,27.65-42.47,17.49-8.2,34.52-6.08,49.81,5.86,12.17,9.51,18.12,22.38,18.25,37.81C185.21,221.87,185.11,236.18,185.11,251.39Z"/></g></g></svg>