<svg xmlns="http://www.w3.org/2000/svg" viewBox="0 0 2051.92 709.71"><defs><style>.cls-1{fill:#fff;}</style></defs><g id="Layer_2" data-name="Layer 2"><g id="Layer_1-2" data-name="Layer 1"><path class="cls-1" d="M725.15,99.2H770V326.84H725.15Z"/><path class="cls-1" d="M933.6,99.2h41.95V326.84H933.6V307.65q-18.54,23.75-52.68,23.74-32.85,0-56.1-24.88t-23.25-61q0-36.1,23.25-61t56.1-24.88q34.14,0,52.68,23.74ZM856.36,278.54q12.85,12.85,32.36,12.85t32.2-12.85q12.68-12.84,12.68-33t-12.68-33q-12.69-12.84-32.2-12.84t-32.36,12.84q-12.84,12.85-12.84,33T856.36,278.54Z"/><path class="cls-1" d="M1049.36,262.77q8.46,30.57,45.85,30.57,24.07,0,36.43-16.26l33.81,19.51q-24.06,34.8-70.89,34.8-40.32,0-64.71-24.39t-24.39-61.46q0-36.75,24.06-61.3t61.79-24.55q35.78,0,59,24.71t23.26,61.14a98.47,98.47,0,0,1-1.63,17.23Zm-.65-32.52h82.93q-3.59-16.58-14.8-24.71a42.41,42.41,0,0,0-25.53-8.13q-16.9,0-28,8.62T1048.71,230.25Z"/><path class="cls-1" d="M1325.12,164.24h42v162.6h-42V307.65q-18.86,23.75-53,23.74-32.52,0-55.77-24.88t-23.25-61q0-36.1,23.25-61t55.77-24.88q34.16,0,53,23.74Zm-77.39,114.3q12.68,12.85,32.19,12.85t32.36-12.85q12.84-12.84,12.84-33t-12.84-33q-12.85-12.84-32.36-12.84t-32.19,12.84q-12.69,12.85-12.69,33T1247.73,278.54Z"/><path class="cls-1" d="M1405.12,326.84V89.45h42V326.84Z"/><path class="cls-1" d="M833.12,639.39q-51.39,0-84.88-34.15T714.75,521q0-50.4,33.49-84.39t84.88-34a116.14,116.14,0,0,1,57.07,14.47A106,106,0,0,1,931,456.31l-38.7,22.43a60.22,60.22,0,0,0-24.06-23.9q-15.62-8.61-35.12-8.61-33.18,0-53.5,20.81T759.3,521q0,32.85,20.32,53.66t53.5,20.81a72.33,72.33,0,0,0,35.28-8.62,58.22,58.22,0,0,0,23.9-23.58L931,585.73a106.32,106.32,0,0,1-40.65,39.19Q864.33,639.4,833.12,639.39Z"/><path class="cls-1" d="M959.29,634.84V397.45h42V634.84Z"/><path class="cls-1" d="M1075.06,570.77q8.45,30.57,45.85,30.57,24.06,0,36.42-16.26l33.82,19.51q-24.08,34.8-70.89,34.8-40.34,0-64.72-24.39t-24.38-61.46q0-36.75,24.06-61.3T1117,467.69q35.76,0,59,24.71t23.25,61.14a98.47,98.47,0,0,1-1.63,17.23Zm-.65-32.52h82.92q-3.58-16.57-14.8-24.71a42.41,42.41,0,0,0-25.52-8.13q-16.92,0-28,8.62T1074.41,538.25Z"/><path class="cls-1" d="M1350.81,472.24h42v162.6h-42V615.65q-18.86,23.75-53,23.74-32.52,0-55.77-24.88t-23.25-61q0-36.1,23.25-61t55.77-24.88q34.14,0,53,23.74Zm-77.39,114.3q12.67,12.86,32.19,12.85T1338,586.54q12.84-12.84,12.84-33t-12.84-33q-12.85-12.84-32.36-12.84t-32.19,12.84q-12.69,12.86-12.68,33T1273.42,586.54Z"/><path class="cls-1" d="M1521.21,467.69q26.67,0,44.06,17.88t17.4,49.43v99.84h-42V540.21q0-16.26-8.78-24.88t-23.41-8.62q-16.26,0-26,10.08T1472.76,547v87.8h-42V472.24h42v18.21Q1488,467.69,1521.21,467.69Z"/><path class="cls-1" d="M1639.25,452.73A26.11,26.11,0,0,1,1613.56,427a25.19,25.19,0,0,1,7.65-18.21,24.42,24.42,0,0,1,18-7.81,24.82,24.82,0,0,1,18.38,7.81,25.22,25.22,0,0,1,7.64,18.21,24.69,24.69,0,0,1-7.64,18A25.08,25.08,0,0,1,1639.25,452.73Zm-20.81,182.11V472.24h42v162.6Z"/><path class="cls-1" d="M1789.16,467.69q26.67,0,44.07,17.88T1850.62,535v99.84h-41.94V540.21q0-16.26-8.78-24.88t-23.42-8.62q-16.26,0-26,10.08T1740.71,547v87.8h-42V472.24h42v18.21Q1756,467.69,1789.16,467.69Z"/><path class="cls-1" d="M2010.94,472.24h41V627q0,37.72-24.88,57.56t-60,19.84q-26.34,0-46.34-10.08a70.58,70.58,0,0,1-30.73-29.6l35.77-20.48Q1938.1,667,1968.34,667q19.83,0,31.22-10.41T2010.94,627V609.47q-18.53,24.72-52,24.72-34.47,0-57.72-24.23t-23.25-59q0-34.47,23.41-58.86t57.56-24.39q33.49,0,52,24.71ZM1932.73,583q12.86,12.53,32.69,12.52T1998.1,583q12.84-12.53,12.84-32,0-19.19-12.84-31.71t-32.68-12.52q-19.85,0-32.69,12.52t-12.84,31.71Q1919.89,570.46,1932.73,583Z"/><path class="cls-1" d="M520.8,339.1A207.14,207.14,0,0,0,485,270.67a232.77,232.77,0,0,1,39.5,81.54C523.37,347.84,522.16,343.46,520.8,339.1Z"/><path class="cls-1" d="M391.89,160.38a33,33,0,0,0,.78-66c-18.57-.35-32.89,14.1-32.83,33.14C359.89,146,373.67,160.14,391.89,160.38Z"/><path class="cls-1" d="M515,202.09c-16.21-17.47-36-18.11-52.78-1.47l-.23.23a29.82,29.82,0,0,0,.27,42.58,236.06,236.06,0,0,1,24.08,27.24,207.14,207.14,0,0,1,35.83,68.43c1.36,4.36,2.58,8.74,3.68,13.11C554.71,466.78,495.47,583.57,384.2,628,247.76,682.55,90.74,593,68.89,447.67a263.91,263.91,0,0,1-3-36.59c-.75-69.19,27.74-128,80.48-178.66,59.08-56.8,116.23-115.6,174.2-173.55C335,44.44,336,23.49,322.9,10a32.37,32.37,0,0,0-46.21-.53c-70,70.08-141,139.21-208.52,211.59C25.36,266.93,6,324.9,1,387.66-11.85,546.91,104.6,682.91,253.23,706.18c155.88,24.42,310-80.63,339.39-235.51C612,368.43,586,278.59,515,202.09Zm-212.48,443h-1.43c1,0,2,0,3,0C303.62,645.06,303.09,645.09,302.56,645.09ZM533.35,417.85c0,1.11-.09,2.21-.13,3.31,0-1.17.1-2.34.13-3.51Z"/><path class="cls-1" d="M484.09,269.55h0c.29.38.59.74.88,1.12C484.67,270.3,484.39,269.92,484.09,269.55Z"/><path class="cls-1" d="M464.17,411.35c0,2-.08,4.07-.16,6.09C464.1,415.42,464.16,413.39,464.17,411.35Z"/><polygon class="cls-1" points="464.17 411.34 464.17 411.34 464.17 411.35 464.17 411.34"/><path class="cls-1" d="M410.2,288.94a27.83,27.83,0,0,0-38.56.82l-.18.18c-16.36,16.49-16.4,34.38-.64,51.29,30.14,32.36,36.27,77.17,15.83,115.88-19.13,36.21-61.47,58.48-100.48,52.83-44.78-6.47-78.52-38-86.77-81.49-6.58-34.69,3.54-64.55,28-89.44,30.33-30.84,61.24-61.1,91.73-91.79l.37-.39c18.3-18.84,13.63-46.43-9.59-55.54-12.69-5-25-3.09-34.77,6.61C240.43,232.4,204.22,265.64,172,302.37c-38.32,43.71-49.58,95-34.77,149q1,3.69,2.17,7.4-1.17-3.71-2.17-7.4A164.31,164.31,0,0,0,154,493.24c-1.69-3.09-3.27-6.29-4.81-9.54,1.54,3.25,3.12,6.45,4.81,9.54a166.2,166.2,0,0,0,14.49,21.38A166.2,166.2,0,0,1,154,493.24c14.47,26.5,34.56,46.91,59.86,60.92-4.29-2.53-8.44-5.27-12.46-8.17,4,2.9,8.17,5.64,12.46,8.17A165.85,165.85,0,0,0,464,417.44c.08-2,.16-4.05.16-6.09h0A165.4,165.4,0,0,0,410.2,288.94ZM180,527.61A167.75,167.75,0,0,0,197.38,543,167.75,167.75,0,0,1,180,527.61Z"/></g></g></svg>