<svg xmlns="http://www.w3.org/2000/svg" viewBox="0 0 280.21 280.15"><g id="Layer_2" data-name="Layer 2"><g id="OBJECTS"><path d="M213.93,199.91c1.74-2.65,2.61-4.51,3.94-5.94,7.15-7.68,14.06-15.63,21.72-22.76,9-8.35,22.21-8.11,31.53-.3s12.23,21.56,5.07,31.52c-14.47,20.14-29.18,40.16-44.87,59.36-9.63,11.8-23.44,17.8-38.78,18-33.64.38-67.3.5-100.93-.18-9.3-.19-18.57-3.36-27.75-5.55-2.9-.69-4.88-.78-7.75.82-4.36,2.44-9.43,4.55-14.33,4.87-10.78.72-21.64.31-32.47.23-6.15,0-9.26-3.11-9.27-9.26Q0,222.48.05,174.25c0-5.82,3.14-9.06,8.92-9.13,11.16-.14,22.33-.19,33.48,0,7.95.16,14.27,4,19.34,10.26,1.22-.76,2.22-1.3,3.14-2,22.48-16.21,50.34-15.65,71.56,2,5.22,4.34,10.37,6.48,17.15,6.18,9.81-.43,19.67.3,29.47-.18C196.65,180.82,207.46,184.54,213.93,199.91Zm-73.17,63.38v.32q23.49,0,47,0c15,0,27.11-5.84,36-18.06,1.76-2.42,3.6-4.79,5.4-7.19Q245,217.18,260.9,196c3.42-4.59,3.45-8.33.33-11.73-3.51-3.83-8.61-3.46-13,1.23q-17,18-33.74,36.18a27.82,27.82,0,0,1-21.78,9.28c-16-.15-32,0-48,0-4.5,0-9,.15-13.49-.13a8.19,8.19,0,0,1-7.86-8.17c0-4.3,3.17-7.74,7.8-8.25a42,42,0,0,1,4.49-.08c17.33,0,34.65.16,52-.16a13.31,13.31,0,0,0,8.62-3.59c1.44-1.5,1.4-5.38.65-7.77-1.17-3.73-4.72-4.79-8.51-4.79-13,0-26-.18-39,.08a29.28,29.28,0,0,1-20.88-7.86c-18.91-16.68-42.86-15.85-60.43,2A7.6,7.6,0,0,0,66.25,197c-.12,19-.15,38,.06,57,0,1.57,1.74,4.13,3.13,4.51,7,1.91,14.18,4.31,21.37,4.59C107.44,263.75,124.11,263.29,140.76,263.29ZM16.43,181.74c0,26.74,0,52.71.14,78.67,0,1.06,2,3,3.16,3q10.72.42,21.48.11c5.25-.15,8.47-3.23,8.51-8.57q.22-32.47,0-65c0-4.5-2.59-7.93-7.24-8.14C34,181.47,25.54,181.74,16.43,181.74Z"/><path d="M82.68,73.76C83.25,32.29,116.58-.56,157.5,0,197.92.57,230.57,34.24,230.15,75c-.41,41.08-33.86,74.32-74.32,73.85A74.3,74.3,0,0,1,82.68,73.76Zm89.65-8c-.18-3.29-.18-6-.5-8.57-1.55-12.77-3.61-25.44-10.82-36.5-3.45-5.28-5.89-5.33-9.19,0-8.49,13.7-10.44,29.08-11.44,45.07ZM140.41,83c.24,3.35.34,6.31.68,9.25,1.48,12.47,3.63,24.77,10.6,35.57,3.56,5.53,6.09,5.62,9.48,0C169.41,114.18,171.49,99,172.45,83Zm40.93-59.94c1.67,6.59,3.66,13.07,4.89,19.68C187.5,49.58,188,56.57,189,63.47c.14,1,1.48,2.43,2.3,2.45,7.08.2,14.17.12,21.29.12C211.46,48.28,195.81,27,181.34,23.05Zm-81.1,43c7.15,0,14,.1,20.74-.12a3.89,3.89,0,0,0,2.82-2.44c2.35-13.51,4.5-27,6.62-40.15C117.1,27,101.22,48.47,100.24,66Zm0,16.63c1.43,18.22,17.76,40.1,30.22,42.68-2.09-12.81-4.19-26-6.49-39.23-.22-1.26-1.63-3.26-2.55-3.3C114.44,82.53,107.49,82.66,100.2,82.66Zm82.24,42.85c14.93-5.7,30.48-27.48,29.85-42.92-6.92,0-13.87-.1-20.8.13-.9,0-2.32,1.7-2.5,2.78C186.69,98.83,184.59,112.2,182.44,125.51Z"/></g></g></svg>